<svg width="24" height="24" viewBox="0 0 24 24" fill="none" xmlns="http://www.w3.org/2000/svg">
<path d="M18.9998 2H5.00025C4.47006 2.0006 3.96175 2.21142 3.58678 2.58625C3.21181 2.96108 3.00079 3.46931 3 3.9995V20C3.00079 20.5302 3.21181 21.0384 3.58678 21.4132C3.96175 21.7881 4.47006 21.9989 5.00025 21.9995H18.9998C19.5299 21.9989 20.0382 21.7881 20.4132 21.4132C20.7882 21.0384 20.9992 20.5302 21 20V3.9995C20.9992 3.46931 20.7882 2.96108 20.4132 2.58625C20.0382 2.21142 19.5299 2.0006 18.9998 2ZM5.00025 20V3.9995H18.9998L19.0012 20H5.00025ZM6.99975 11.9998H9V14H6.99975V11.9998ZM6.99975 15.9995H9V17.9998H6.99975V15.9995ZM11.0002 11.9998H12.9998V14H11.0002V11.9998ZM6.99975 5.99975H17.0002V9.9995H6.99975V5.99975ZM11.0002 15.9995H12.9998V17.9998H11.0002V15.9995ZM15 11.9998H17.0002V17.9998H15V11.9998Z" fill="#D65A31"/>
</svg>
