<svg width="18" height="20" viewBox="0 0 18 20" fill="none" xmlns="http://www.w3.org/2000/svg">
<path d="M15.9998 0.000244141H2.00025C1.47006 0.000839262 0.961751 0.211667 0.586782 0.586496C0.211813 0.961325 0.000793954 1.46956 0 1.99974V18.0002C0.000793954 18.5304 0.211813 19.0387 0.586782 19.4135C0.961751 19.7883 1.47006 19.9991 2.00025 19.9997H15.9998C16.5299 19.9991 17.0382 19.7883 17.4132 19.4135C17.7882 19.0387 17.9992 18.5304 18 18.0002V1.99974C17.9992 1.46956 17.7882 0.961325 17.4132 0.586496C17.0382 0.211667 16.5299 0.000839262 15.9998 0.000244141ZM2.00025 18.0002V1.99974H15.9998L16.0012 18.0002H2.00025ZM3.99975 9.99999H6V12.0002H3.99975V9.99999ZM3.99975 13.9997H6V16H3.99975V13.9997ZM8.00025 9.99999H9.99975V12.0002H8.00025V9.99999ZM3.99975 3.99999H14.0002V7.99974H3.99975V3.99999ZM8.00025 13.9997H9.99975V16H8.00025V13.9997ZM12 9.99999H14.0002V16H12V9.99999Z" fill="#EEEEEE"/>
</svg>
