<svg width="20" height="20" viewBox="0 0 20 20" fill="none" xmlns="http://www.w3.org/2000/svg">
<path d="M17.3333 0.833496H8.16665C7.15556 0.833496 6.33331 1.65575 6.33331 2.66683V6.3335H2.66665C1.65556 6.3335 0.833313 7.15575 0.833313 8.16683V17.3335C0.833313 18.3446 1.65556 19.1668 2.66665 19.1668H11.8333C12.8444 19.1668 13.6666 18.3446 13.6666 17.3335V13.6668H17.3333C18.3444 13.6668 19.1666 12.8446 19.1666 11.8335V2.66683C19.1666 1.65575 18.3444 0.833496 17.3333 0.833496ZM2.66665 17.3335V8.16683H11.8333L11.8351 17.3335H2.66665ZM17.3333 11.8335H13.6666V8.16683C13.6666 7.15575 12.8444 6.3335 11.8333 6.3335H8.16665V2.66683H17.3333V11.8335Z" fill="#EEEEEE"/>
</svg>