<svg width="41" height="41" viewBox="0 0 41 41" fill="none" xmlns="http://www.w3.org/2000/svg">
<rect width="41" height="41" rx="5" fill="#D65A31"/>
<path d="M27.6587 11.8335H18.7103C17.7233 11.8335 16.9206 12.6558 16.9206 13.6668V17.3335H13.3413C12.3542 17.3335 11.5516 18.1558 11.5516 19.1668V28.3335C11.5516 29.3446 12.3542 30.1668 13.3413 30.1668H22.2896C23.2767 30.1668 24.0793 29.3446 24.0793 28.3335V24.6668H27.6587C28.6457 24.6668 29.4483 23.8446 29.4483 22.8335V13.6668C29.4483 12.6558 28.6457 11.8335 27.6587 11.8335ZM13.3413 28.3335V19.1668H22.2896L22.2914 28.3335H13.3413ZM27.6587 22.8335H24.0793V19.1668C24.0793 18.1558 23.2767 17.3335 22.2896 17.3335H18.7103V13.6668H27.6587V22.8335Z" fill="#EEEEEE"/>
<path d="M15.131 21H20.5V22.8333H15.131V21ZM15.131 24.6667H20.5V26.5H15.131V24.6667Z" fill="#EEEEEE"/>
</svg>
