<svg width="20" height="18" viewBox="0 0 20 18" fill="none" xmlns="http://www.w3.org/2000/svg">
<g clip-path="url(#clip0)">
<path d="M18.0002 -0.000488281H3.99999C3.46968 0.000107246 2.96125 0.211038 2.58626 0.586029C2.21127 0.96102 2.00034 1.46945 1.99974 1.99976V5.99951H3.99999V4.00001L10.3997 8.80001C10.5729 8.92964 10.7834 8.9997 10.9997 8.9997C11.2161 8.9997 11.4266 8.92964 11.5997 8.80001L18.0002 4.00001V13H9.99999V14.9995H18.0002C18.5303 14.9987 19.0384 14.7878 19.4132 14.413C19.788 14.0382 19.999 13.5301 19.9997 13V1.99976C19.9991 1.46957 19.7883 0.961263 19.4135 0.586294C19.0387 0.211324 18.5304 0.000305673 18.0002 -0.000488281ZM10.9997 6.74951L4.66599 1.99976H17.3335L10.9997 6.74951ZM0.000244141 7.99976H6.99999V10H0.000244141V7.99976ZM1.99974 11.9995H7.99974V13.9998H1.99974V11.9995ZM4.99974 16H9.00024V17.9995H4.99974V16Z" fill="#EEEEEE"/>
</g>
<defs>
<clipPath id="clip0">
<rect width="20" height="18" fill="white"/>
</clipPath>
</defs>
</svg>
