<svg width="20" height="20" viewBox="0 0 20 20" fill="none" xmlns="http://www.w3.org/2000/svg">
<path d="M0.999902 10.9997H1.99965V18.0002C2.00045 18.5304 2.21147 19.0386 2.58643 19.4135C2.9614 19.7883 3.46972 19.9991 3.9999 19.9997H15.9999C16.5301 19.9991 17.0384 19.7883 17.4134 19.4135C17.7883 19.0386 17.9994 18.5304 18.0002 18.0002V10.9997H18.9999C19.1976 10.9995 19.3907 10.9407 19.555 10.8308C19.7193 10.7209 19.8474 10.5648 19.923 10.3822C19.9987 10.1996 20.0186 9.99864 19.9802 9.80474C19.9417 9.61085 19.8467 9.43268 19.7072 9.29272L10.7072 0.292719C10.6144 0.199698 10.5041 0.125897 10.3828 0.0755423C10.2614 0.0251872 10.1313 -0.000732422 9.9999 -0.000732422C9.86851 -0.000732422 9.73841 0.0251872 9.61705 0.0755423C9.49569 0.125897 9.38545 0.199698 9.29265 0.292719L0.292653 9.29272C0.152706 9.43254 0.0573857 9.61073 0.0187571 9.80475C-0.0198715 9.99877 -7.19652e-05 10.1999 0.0756495 10.3826C0.151371 10.5654 0.27961 10.7216 0.444136 10.8314C0.608662 10.9413 0.802078 10.9998 0.999902 10.9997ZM7.99965 18.0002V13H12.0002V18.0002H7.99965ZM9.9999 2.41372L15.9999 8.41372V13L16.0007 18.0002H13.9997V13C13.9991 12.4698 13.7882 11.9615 13.4134 11.5865C13.0386 11.2115 12.5303 11.0005 12.0002 10.9997H7.99965C7.46947 11.0005 6.96123 11.2115 6.5864 11.5865C6.21158 11.9615 6.00075 12.4698 6.00015 13V18.0002H3.9999V8.41372L9.9999 2.41372Z" fill="#EEEEEE"/>
</svg>
