<svg width="24" height="24" viewBox="0 0 24 24" fill="none" xmlns="http://www.w3.org/2000/svg">
<path d="M2.99996 12.9995H3.99971V20C4.00051 20.5302 4.21153 21.0384 4.5865 21.4132C4.96146 21.7881 5.46978 21.9989 5.99996 21.9995H18C18.5302 21.9989 19.0385 21.7881 19.4134 21.4132C19.7884 21.0384 19.9994 20.5302 20.0002 20V12.9995H21C21.1976 12.9992 21.3908 12.9405 21.5551 12.8306C21.7194 12.7207 21.8474 12.5645 21.9231 12.3819C21.9988 12.1993 22.0186 11.9984 21.9802 11.8045C21.9418 11.6106 21.8468 11.4324 21.7072 11.2925L12.7072 2.29247C12.6144 2.19945 12.5042 2.12565 12.3828 2.0753C12.2615 2.02494 12.1314 1.99902 12 1.99902C11.8686 1.99902 11.7385 2.02494 11.6171 2.0753C11.4957 2.12565 11.3855 2.19945 11.2927 2.29247L2.29271 11.2925C2.15277 11.4323 2.05745 11.6105 2.01882 11.8045C1.98019 11.9985 1.99999 12.1996 2.07571 12.3824C2.15143 12.5652 2.27967 12.7213 2.4442 12.8312C2.60872 12.941 2.80214 12.9996 2.99996 12.9995ZM9.99971 20V14.9997H14.0002V20H9.99971ZM12 4.41348L18 10.4135V14.9997L18.0007 20H15.9997V14.9997C15.9991 14.4695 15.7883 13.9612 15.4135 13.5863C15.0386 13.2113 14.5304 13.0003 14.0002 12.9995H9.99971C9.46953 13.0003 8.96129 13.2113 8.58647 13.5863C8.21164 13.9612 8.00081 14.4695 8.00021 14.9997V20H5.99996V10.4135L12 4.41348Z" fill="#D65A31"/>
</svg>
