<svg width="24" height="24" viewBox="0 0 24 24" fill="none" xmlns="http://www.w3.org/2000/svg">
<path d="M20.0002 2H8.00024C7.47006 2.0006 6.96175 2.21142 6.58678 2.58625C6.21181 2.96108 6.00079 3.46931 5.99999 3.9995V15.9995C6.00059 16.5298 6.21152 17.0382 6.58651 17.4132C6.9615 17.7882 7.46993 17.9992 8.00024 17.9998H20.0002C20.5304 17.999 21.0387 17.7879 21.4135 17.413C21.7883 17.038 21.9991 16.5297 21.9997 15.9995V3.9995C21.999 3.46944 21.788 2.96132 21.4132 2.58652C21.0384 2.21171 20.5303 2.00079 20.0002 2ZM8.00024 15.9995V3.9995H20.0002L20.0017 15.9995H8.00024ZM3.99974 8H2.00024V20C2.00104 20.5301 2.21195 21.0382 2.58676 21.413C2.96157 21.7878 3.46969 21.9987 3.99974 21.9995H15.9997V20H3.99974V8ZM12 11.9998L11.0002 11L8.99999 14H18.9997L15 8L12 11.9998Z" fill="#D65A31"/>
</svg>
