<svg width="20" height="20" viewBox="0 0 20 20" fill="none" xmlns="http://www.w3.org/2000/svg">
<path d="M18.0002 0.000244141H6.00024C5.47006 0.000839262 4.96175 0.211667 4.58678 0.586496C4.21181 0.961325 4.00079 1.46956 3.99999 1.99974V13.9997C4.00059 14.5301 4.21152 15.0385 4.58651 15.4135C4.9615 15.7885 5.46993 15.9994 6.00024 16H18.0002C18.5304 15.9992 19.0387 15.7882 19.4135 15.4132C19.7883 15.0382 19.9991 14.5299 19.9997 13.9997V1.99974C19.999 1.46969 19.788 0.961568 19.4132 0.58676C19.0384 0.211953 18.5303 0.00103764 18.0002 0.000244141ZM6.00024 13.9997V1.99974H18.0002L18.0017 13.9997H6.00024ZM1.99974 6.00024H0.000244141V18.0002C0.00103764 18.5303 0.211953 19.0384 0.58676 19.4132C0.961568 19.788 1.46969 19.999 1.99974 19.9997H13.9997V18.0002H1.99974V6.00024ZM9.99999 9.99999L9.00024 9.00024L6.99999 12.0002H16.9997L13 6.00024L9.99999 9.99999Z" fill="#EEEEEE"/>
</svg>
