<svg width="204" height="50" viewBox="0 0 204 50" fill="none" xmlns="http://www.w3.org/2000/svg">
<path d="M50.8742 50H0.161804V23.1319H6.61342V43.639H44.4231V6.36044H23.6266V0H50.8742V50Z" fill="#D65A31"/>
<path d="M9.15527e-05 16.2297V0H16.461L12.9602 3.4511H3.50036V12.778L9.15527e-05 16.2286V16.2297Z" fill="#EEEEEE"/>
<path d="M19.0809 2.28296L19.0809 18.5126L2.62 18.5126L6.12082 15.0615L15.5806 15.0615L15.5806 5.73461L19.0809 2.28406V2.28296Z" fill="#EEEEEE"/>
<path d="M63.5145 9.25506V13.1051H68.5825V14.0011H63.5145V18.1591H62.4785V8.35906H69.1985V9.25506H63.5145ZM78.0299 18.1591L75.7899 15.0091C75.5379 15.0371 75.2766 15.0511 75.0059 15.0511H72.3739V18.1591H71.3379V8.35906H75.0059C76.2566 8.35906 77.2366 8.65772 77.9459 9.25506C78.6552 9.85239 79.0099 10.6737 79.0099 11.7191C79.0099 12.4844 78.8139 13.1331 78.4219 13.6651C78.0392 14.1877 77.4886 14.5657 76.7699 14.7991L79.1639 18.1591H78.0299ZM74.9779 14.1691C75.9486 14.1691 76.6906 13.9544 77.2039 13.5251C77.7172 13.0957 77.9739 12.4937 77.9739 11.7191C77.9739 10.9257 77.7172 10.3191 77.2039 9.89906C76.6906 9.46972 75.9486 9.25506 74.9779 9.25506H72.3739V14.1691H74.9779ZM85.7391 18.2431C84.7684 18.2431 83.8864 18.0284 83.0931 17.5991C82.3091 17.1604 81.6931 16.5631 81.2451 15.8071C80.8064 15.0511 80.5871 14.2017 80.5871 13.2591C80.5871 12.3164 80.8064 11.4671 81.2451 10.7111C81.6931 9.95506 82.3091 9.36239 83.0931 8.93306C83.8864 8.49439 84.7684 8.27506 85.7391 8.27506C86.7098 8.27506 87.5824 8.48972 88.3571 8.91906C89.1411 9.34839 89.7571 9.94572 90.2051 10.7111C90.6531 11.4671 90.8771 12.3164 90.8771 13.2591C90.8771 14.2017 90.6531 15.0557 90.2051 15.8211C89.7571 16.5771 89.1411 17.1697 88.3571 17.5991C87.5824 18.0284 86.7098 18.2431 85.7391 18.2431ZM85.7391 17.3191C86.5138 17.3191 87.2138 17.1464 87.8391 16.8011C88.4644 16.4464 88.9544 15.9611 89.3091 15.3451C89.6638 14.7197 89.8411 14.0244 89.8411 13.2591C89.8411 12.4937 89.6638 11.8031 89.3091 11.1871C88.9544 10.5617 88.4644 10.0764 87.8391 9.73106C87.2138 9.37639 86.5138 9.19906 85.7391 9.19906C84.9644 9.19906 84.2598 9.37639 83.6251 9.73106C82.9998 10.0764 82.5051 10.5617 82.1411 11.1871C81.7864 11.8031 81.6091 12.4937 81.6091 13.2591C81.6091 14.0244 81.7864 14.7197 82.1411 15.3451C82.5051 15.9611 82.9998 16.4464 83.6251 16.8011C84.2598 17.1464 84.9644 17.3191 85.7391 17.3191ZM94.9665 9.25506H91.5225V8.35906H99.4465V9.25506H96.0025V18.1591H94.9665V9.25506ZM108.032 17.2631V18.1591H101.102V8.35906H107.822V9.25506H102.138V12.7411H107.206V13.6231H102.138V17.2631H108.032ZM118.657 8.35906V18.1591H117.803L111.503 10.2071V18.1591H110.467V8.35906H111.321L117.635 16.3111V8.35906H118.657ZM121.855 8.35906H125.845C126.881 8.35906 127.796 8.56906 128.589 8.98906C129.383 9.39972 129.999 9.97839 130.437 10.7251C130.876 11.4624 131.095 12.3071 131.095 13.2591C131.095 14.2111 130.876 15.0604 130.437 15.8071C129.999 16.5444 129.383 17.1231 128.589 17.5431C127.796 17.9537 126.881 18.1591 125.845 18.1591H121.855V8.35906ZM125.789 17.2631C126.648 17.2631 127.399 17.0951 128.043 16.7591C128.687 16.4137 129.187 15.9424 129.541 15.3451C129.896 14.7384 130.073 14.0431 130.073 13.2591C130.073 12.4751 129.896 11.7844 129.541 11.1871C129.187 10.5804 128.687 10.1091 128.043 9.77306C127.399 9.42772 126.648 9.25506 125.789 9.25506H122.891V17.2631H125.789Z" fill="#EEEEEE"/>
<path d="M67.8825 24.1423H60.9945V22.3503H76.8425V24.1423H69.9545V41.9503H67.8825V24.1423ZM88.4472 42.1183C86.5059 42.1183 84.7419 41.6889 83.1552 40.8303C81.5872 39.9529 80.3552 38.7583 79.4592 37.2463C78.5819 35.7343 78.1432 34.0356 78.1432 32.1503C78.1432 30.2649 78.5819 28.5663 79.4592 27.0543C80.3552 25.5423 81.5872 24.3569 83.1552 23.4983C84.7419 22.6209 86.5059 22.1823 88.4472 22.1823C90.3885 22.1823 92.1339 22.6116 93.6832 23.4703C95.2512 24.3289 96.4832 25.5236 97.3792 27.0543C98.2752 28.5663 98.7232 30.2649 98.7232 32.1503C98.7232 34.0356 98.2752 35.7436 97.3792 37.2743C96.4832 38.7863 95.2512 39.9716 93.6832 40.8303C92.1339 41.6889 90.3885 42.1183 88.4472 42.1183ZM88.4472 40.2703C89.9965 40.2703 91.3965 39.9249 92.6472 39.2343C93.8979 38.5249 94.8779 37.5543 95.5872 36.3223C96.2965 35.0716 96.6512 33.6809 96.6512 32.1503C96.6512 30.6196 96.2965 29.2383 95.5872 28.0063C94.8779 26.7556 93.8979 25.7849 92.6472 25.0943C91.3965 24.3849 89.9965 24.0303 88.4472 24.0303C86.8979 24.0303 85.4885 24.3849 84.2192 25.0943C82.9685 25.7849 81.9792 26.7556 81.2512 28.0063C80.5419 29.2383 80.1872 30.6196 80.1872 32.1503C80.1872 33.6809 80.5419 35.0716 81.2512 36.3223C81.9792 37.5543 82.9685 38.5249 84.2192 39.2343C85.4885 39.9249 86.8979 40.2703 88.4472 40.2703ZM111.935 42.1183C109.994 42.1183 108.23 41.6889 106.643 40.8303C105.075 39.9529 103.843 38.7583 102.947 37.2463C102.07 35.7343 101.631 34.0356 101.631 32.1503C101.631 30.2649 102.07 28.5663 102.947 27.0543C103.843 25.5423 105.075 24.3569 106.643 23.4983C108.23 22.6209 109.994 22.1823 111.935 22.1823C113.877 22.1823 115.622 22.6116 117.171 23.4703C118.739 24.3289 119.971 25.5236 120.867 27.0543C121.763 28.5663 122.211 30.2649 122.211 32.1503C122.211 34.0356 121.763 35.7436 120.867 37.2743C119.971 38.7863 118.739 39.9716 117.171 40.8303C115.622 41.6889 113.877 42.1183 111.935 42.1183ZM111.935 40.2703C113.485 40.2703 114.885 39.9249 116.135 39.2343C117.386 38.5249 118.366 37.5543 119.075 36.3223C119.785 35.0716 120.139 33.6809 120.139 32.1503C120.139 30.6196 119.785 29.2383 119.075 28.0063C118.366 26.7556 117.386 25.7849 116.135 25.0943C114.885 24.3849 113.485 24.0303 111.935 24.0303C110.386 24.0303 108.977 24.3849 107.707 25.0943C106.457 25.7849 105.467 26.7556 104.739 28.0063C104.03 29.2383 103.675 30.6196 103.675 32.1503C103.675 33.6809 104.03 35.0716 104.739 36.3223C105.467 37.5543 106.457 38.5249 107.707 39.2343C108.977 39.9249 110.386 40.2703 111.935 40.2703ZM126.856 22.3503H128.928V40.1583H139.904V41.9503H126.856V22.3503Z" fill="#EEEEEE"/>
<path d="M156.467 31.7583C157.55 32.1129 158.409 32.7103 159.043 33.5503C159.678 34.3716 159.995 35.3983 159.995 36.6303C159.995 38.3289 159.342 39.6449 158.035 40.5783C156.729 41.4929 154.825 41.9503 152.323 41.9503H142.579V22.3503H151.763C154.078 22.3503 155.861 22.8076 157.111 23.7223C158.362 24.6183 158.987 25.8596 158.987 27.4463C158.987 28.4169 158.763 29.2756 158.315 30.0223C157.867 30.7689 157.251 31.3476 156.467 31.7583ZM146.219 25.2063V30.6103H151.371C152.641 30.6103 153.611 30.3863 154.283 29.9383C154.974 29.4716 155.319 28.7996 155.319 27.9223C155.319 27.0263 154.974 26.3543 154.283 25.9063C153.611 25.4396 152.641 25.2063 151.371 25.2063H146.219ZM152.099 39.0943C154.918 39.0943 156.327 38.1516 156.327 36.2663C156.327 34.3809 154.918 33.4383 152.099 33.4383H146.219V39.0943H152.099ZM173.036 42.2303C171.039 42.2303 169.238 41.8009 167.632 40.9423C166.027 40.0649 164.767 38.8609 163.852 37.3303C162.938 35.7809 162.48 34.0543 162.48 32.1503C162.48 30.2463 162.938 28.5289 163.852 26.9983C164.767 25.4489 166.027 24.2449 167.632 23.3863C169.238 22.5089 171.039 22.0703 173.036 22.0703C175.034 22.0703 176.835 22.5089 178.44 23.3863C180.046 24.2449 181.306 25.4396 182.22 26.9703C183.135 28.5009 183.592 30.2276 183.592 32.1503C183.592 34.0729 183.135 35.7996 182.22 37.3303C181.306 38.8609 180.046 40.0649 178.44 40.9423C176.835 41.8009 175.034 42.2303 173.036 42.2303ZM173.036 39.0383C174.343 39.0383 175.519 38.7489 176.564 38.1703C177.61 37.5729 178.431 36.7516 179.028 35.7063C179.626 34.6423 179.924 33.4569 179.924 32.1503C179.924 30.8436 179.626 29.6676 179.028 28.6223C178.431 27.5583 177.61 26.7369 176.564 26.1583C175.519 25.5609 174.343 25.2623 173.036 25.2623C171.73 25.2623 170.554 25.5609 169.508 26.1583C168.463 26.7369 167.642 27.5583 167.044 28.6223C166.447 29.6676 166.148 30.8436 166.148 32.1503C166.148 33.4569 166.447 34.6423 167.044 35.7063C167.642 36.7516 168.463 37.5729 169.508 38.1703C170.554 38.7489 171.73 39.0383 173.036 39.0383ZM199.088 41.9503L193.768 34.5023L188.504 41.9503H184.36L191.64 31.9543L184.752 22.3503H188.868L193.88 29.3223L198.836 22.3503H202.784L195.924 31.8143L203.288 41.9503H199.088Z" fill="#EEEEEE"/>
</svg>
