<svg width="19" height="19" viewBox="0 0 19 19" fill="none" xmlns="http://www.w3.org/2000/svg">
<path d="M7.9995 15.9998C9.846 15.9998 11.5425 15.3645 12.897 14.3123L17.2927 18.7073L18.7065 17.2935L14.3107 12.8978C15.4047 11.4996 15.9992 9.77552 15.9997 8.00025C15.9997 3.58875 12.411 0 7.9995 0C3.588 0 0 3.58875 0 7.9995C0 12.4103 3.58875 15.9998 7.9995 15.9998ZM7.9995 1.9995C11.3085 1.9995 13.9995 4.6905 13.9995 7.9995C13.9995 11.3085 11.3085 13.9995 7.9995 13.9995C4.6905 13.9995 1.9995 11.3085 1.9995 7.9995C1.9995 4.6905 4.6905 1.9995 7.9995 1.9995Z" fill="#D65A31"/>
</svg>
