<svg width="24" height="24" viewBox="0 0 24 24" fill="none" xmlns="http://www.w3.org/2000/svg">
<path d="M19.9028 8.58575C19.8554 8.47741 19.7891 8.37837 19.707 8.29325L13.707 2.29325C13.6219 2.21091 13.5229 2.14437 13.4145 2.09675C13.3845 2.0825 13.3523 2.07425 13.32 2.06375C13.2364 2.0353 13.1494 2.01814 13.0613 2.01275C13.0403 2.0105 13.0208 2 12.9998 2H6.00001C5.46982 2.0006 4.96151 2.21142 4.58654 2.58625C4.21157 2.96108 4.00055 3.46931 3.99976 3.9995V20C4.00055 20.5302 4.21157 21.0384 4.58654 21.4132C4.96151 21.7881 5.46982 21.9989 6.00001 21.9995H18C18.5302 21.9989 19.0385 21.7881 19.4135 21.4132C19.7884 21.0384 19.9995 20.5302 20.0003 20V8.99975C20.0003 8.97875 19.989 8.96 19.9868 8.9375C19.9818 8.8493 19.9647 8.76222 19.9358 8.67875C19.926 8.6465 19.917 8.61575 19.9028 8.58575ZM16.5863 8H14.0003V5.414L16.5863 8ZM6.00001 20V3.9995H12V8.99975C12 9.5525 12.447 9.9995 12.9998 9.9995H18L18.0023 20H6.00001ZM8.00026 11.9998H15.9998V14H8.00026V11.9998ZM8.00026 15.9995H15.9998V17.9998H8.00026V15.9995ZM8.00026 8H9.99976V9.9995H8.00026V8Z" fill="#D65A31"/>
</svg>
