<svg width="16" height="20" viewBox="0 0 16 20" fill="none" xmlns="http://www.w3.org/2000/svg">
<path d="M15.9028 6.58599C15.8554 6.47765 15.7891 6.37861 15.707 6.29349L9.707 0.293494C9.62194 0.211155 9.52289 0.144617 9.41451 0.0969941C9.38451 0.0827441 9.35226 0.0744942 9.32001 0.0639942C9.23641 0.0355394 9.14939 0.0183874 9.06126 0.0129941C9.04026 0.0107441 9.02076 0.000244141 8.99976 0.000244141H2.00001C1.46982 0.000839262 0.961507 0.211667 0.586538 0.586496C0.211569 0.961325 0.000549813 1.46956 -0.000244141 1.99974V18.0002C0.000549813 18.5304 0.211569 19.0387 0.586538 19.4135C0.961507 19.7883 1.46982 19.9991 2.00001 19.9997H14C14.5302 19.9991 15.0385 19.7883 15.4135 19.4135C15.7884 19.0387 15.9995 18.5304 16.0003 18.0002V6.99999C16.0003 6.97899 15.989 6.96024 15.9868 6.93774C15.9818 6.84955 15.9647 6.76246 15.9358 6.67899C15.926 6.64674 15.917 6.61599 15.9028 6.58599ZM12.5863 6.00024H10.0003V3.41424L12.5863 6.00024ZM2.00001 18.0002V1.99974H8.00001V6.99999C8.00001 7.55274 8.44701 7.99974 8.99976 7.99974H14L14.0023 18.0002H2.00001ZM4.00026 9.99999H11.9998V12.0002H4.00026V9.99999ZM4.00026 13.9997H11.9998V16H4.00026V13.9997ZM4.00026 6.00024H5.99976V7.99974H4.00026V6.00024Z" fill="#EEEEEE"/>
</svg>
