<svg width="24" height="24" viewBox="0 0 24 24" fill="none" xmlns="http://www.w3.org/2000/svg">
<path d="M10.9995 18.9998C12.846 18.9998 14.5425 18.3645 15.897 17.3123L20.2927 21.7073L21.7065 20.2935L17.3107 15.8978C18.4047 14.4996 18.9992 12.7755 18.9997 11.0002C18.9997 6.58875 15.411 3 10.9995 3C6.588 3 3 6.58875 3 10.9995C3 15.4103 6.58875 18.9998 10.9995 18.9998ZM10.9995 4.9995C14.3085 4.9995 16.9995 7.6905 16.9995 10.9995C16.9995 14.3085 14.3085 16.9995 10.9995 16.9995C7.6905 16.9995 4.9995 14.3085 4.9995 10.9995C4.9995 7.6905 7.6905 4.9995 10.9995 4.9995Z" fill="#D65A31"/>
</svg>
