<svg width="19" height="20" viewBox="0 0 19 20" fill="none" xmlns="http://www.w3.org/2000/svg">
<path d="M2.00243 18.0002C2.00322 18.5304 2.21424 19.0387 2.58921 19.4135C2.96418 19.7883 3.47249 19.9992 4.00268 19.9997H14.0032C14.5332 19.999 15.0414 19.788 15.4162 19.4132C15.791 19.0384 16.0019 18.5303 16.0027 18.0002V6.00024H18.0029V3.99999H14.0032V1.99974C14.0024 1.46956 13.7914 0.961325 13.4164 0.586496C13.0414 0.211667 12.5331 0.000839262 12.0029 0.000244141H6.00293C5.47274 0.000839262 4.96443 0.211667 4.58946 0.586496C4.21449 0.961325 4.00347 1.46956 4.00268 1.99974V3.99999H0.00292969V6.00024H2.00318V18.0002H2.00243ZM6.00293 1.99974H12.0029V3.99999H6.00293V1.99974ZM5.00318 6.00024H14.0032L14.0039 18.0002H4.00268V6.00024H5.00318ZM6.00293 7.99974H8.00318V16H6.00293V7.99974ZM10.0027 7.99974H12.0029V16H10.0027V7.99974Z" fill="#D65A31"/>
</svg>
