<svg width="50" height="50" viewBox="0 0 50 50" fill="none" xmlns="http://www.w3.org/2000/svg">
<path d="M25.0001 50C38.7695 50 50 38.7695 50 24.9999C50 11.2305 38.7695 0 25.0001 0C11.2306 0 0 11.2305 0 24.9999C0 38.7695 11.2306 50 25.0001 50Z" fill="#FFCA4F"/>
<path d="M22.6674 19.1069H23.594H26.4052H27.3319L27.7098 23.0383L28.3809 23.5769L29.7964 24.4778L24.9996 35.8081L20.203 24.4778L21.6186 23.5769L22.2899 23.0386L22.6674 19.1069Z" fill="#F0B97D"/>
<path d="M21.1948 23.8465L14.3563 26.029C14.3563 26.029 13.691 26.3754 13.34 27.3805C11.303 29.563 4.77832 36.6957 4.77832 38.5066C4.77832 40.6525 10.3475 45.821 10.3475 45.821H12.9908V47.6732H24.9997H37.0088V45.821H39.6523C39.6523 45.821 45.2214 40.6525 45.2214 38.5066C45.2214 36.6952 38.6957 29.562 36.6594 27.3798C36.3079 26.3754 35.6432 26.0291 35.6432 26.0291L28.8514 23.8764L28.2751 25.5665L24.9997 25.4075L21.772 25.5643L21.1948 23.8465ZM12.9908 36.3504L13.8384 39.7313L13.6885 43.3029L12.9908 42.5045L10.5569 39.0278L12.9908 36.3504ZM37.0088 42.5047L36.3115 43.26L36.1613 39.111L37.0088 36.35L39.4431 39.0279L37.0088 42.5047Z" fill="#15BDB1"/>
<path d="M21.1285 23.8678L20.2085 24.1613L24.9996 35.8082L29.8333 24.1875L28.8513 23.8764L26.446 25.3628H23.5623L21.1285 23.8678Z" fill="#F1F1F1"/>
<path d="M21.1948 23.8465L19.7196 24.3174L19.4363 28.0601C19.4363 28.0601 19.5143 28.3677 19.7485 28.34L21.0798 28.8404C21.0798 28.8404 21.1669 28.9277 21.0889 29.0378L19.9496 29.8185L23.8859 37.237C24.2545 37.2583 24.6259 37.2691 24.9995 37.2691C25.3735 37.2691 25.7447 37.2583 26.1132 37.237L30.0495 29.8185L28.9102 29.0378C28.8323 28.9277 28.9193 28.8404 28.9193 28.8404L30.2505 28.34C30.4848 28.3677 30.5629 28.0601 30.5629 28.0601L30.2803 24.3295L28.8509 23.8763L24.9993 35.1715L21.1948 23.8465Z" fill="#20D0C2"/>
<path d="M30.4321 11.1124C30.4321 11.4776 30.5655 11.8354 30.5556 12.1859C31.8056 11.9539 31.2021 15.6667 30.4948 16.1772C30.4387 16.2178 30.3004 16.1272 30.1838 16.0528C29.9385 17.4186 27.8448 21.0674 26.5137 22.6032C26.1439 23.0298 23.8834 23.0226 23.5173 22.6195C22.1538 21.1186 20.0629 17.4264 19.8163 16.0528C19.6994 16.1273 19.5612 16.2178 19.5052 16.1772C18.7979 15.6667 18.1943 11.9539 19.4443 12.1859C19.4345 11.8354 19.5676 11.4776 19.5676 11.1124C19.6368 8.22939 22.249 6.79004 25 6.77783C27.7506 6.79004 30.3631 8.22939 30.4321 11.1124Z" fill="#FED198"/>
<path d="M28.7572 7.41657C29.1513 7.37077 30.5753 7.8069 30.7461 9.31345C30.9172 10.8201 30.8353 12.2081 30.8353 12.2081C30.8353 12.2081 30.0012 12.4188 29.8961 13.2738C29.7912 14.129 29.866 14.129 29.866 14.129L29.564 14.0612L29.3487 12.5951C28.1007 11.8132 29.3581 10.6548 28.1098 10.3835C24.7385 12.7863 21.764 12.3752 20.4226 11.2447C20.4226 11.2447 20.7357 12.427 20.4942 12.8484C20.2528 13.2701 20.397 13.9343 20.397 13.9343L20.0834 13.9191C20.0834 13.9191 20.1401 12.1781 19.444 12.1857C16.7994 7.81911 25.1723 2.39479 28.7572 7.41657Z" fill="#666666"/>
<path d="M22.2573 22.4769C22.3553 22.4839 21.1157 23.8714 21.1157 23.8714L22.1708 27.4576L24.9998 25.3625C23.4437 24.6048 22.515 23.6232 22.2573 22.4769Z" fill="white"/>
<path d="M27.7425 22.4769C27.6447 22.4839 28.8839 23.8714 28.8839 23.8714L27.8286 27.4576L24.9998 25.3625C26.556 24.6048 27.4847 23.6232 27.7425 22.4769Z" fill="white"/>
<path d="M12.7469 43.7354C14.3418 43.7354 15.6345 44.5379 15.6345 45.5277C15.6345 46.5175 14.3418 47.3201 12.7469 47.3201C11.152 47.3201 9.85928 46.5174 9.85928 45.5277C9.85928 44.5379 11.152 43.7354 12.7469 43.7354ZM12.7469 44.2088C11.5057 44.2088 10.4998 44.7998 10.4998 45.5277C10.4998 46.2561 11.5057 46.8471 12.7469 46.8471C13.9881 46.8471 14.9941 46.2561 14.9941 45.5277C14.994 44.7998 13.9881 44.2088 12.7469 44.2088Z" fill="#ECF0F1"/>
<path d="M12.7469 46.8469C13.9846 46.8469 14.9942 46.2544 14.9942 45.5279C14.9942 44.8014 13.9846 44.2088 12.7469 44.2088C11.5092 44.2088 10.4998 44.8014 10.4998 45.5279C10.4997 46.2543 11.5092 46.8469 12.7469 46.8469Z" fill="#377BB9"/>
<path d="M11.8324 46.2812V47.7257C11.8324 47.9048 11.6861 48.0514 11.5066 48.0514H10.9323C10.7531 48.0514 10.6065 47.9048 10.6065 47.7257V45.4904C10.6065 45.4562 10.6119 45.4233 10.6218 45.3923V44.9002C10.6218 44.4819 10.964 44.1398 11.3823 44.1398H16.0845C16.5027 44.1398 16.8446 44.4818 16.8446 44.9002V45.3916C16.8549 45.4227 16.8602 45.4559 16.8602 45.4905V47.7258C16.8602 47.9049 16.7138 48.0515 16.5344 48.0515H15.9602C15.7809 48.0515 15.6344 47.9049 15.6344 47.7258V46.2813H15.1842V47.7258C15.1842 47.9049 15.0379 48.0515 14.8584 48.0515H14.2841C14.1048 48.0515 13.9583 47.9049 13.9583 47.7258V46.2813H13.5083V47.7258C13.5083 47.9049 13.3617 48.0515 13.1825 48.0515H12.6082C12.4287 48.0515 12.2824 47.9049 12.2824 47.7258V46.2813L11.8324 46.2812Z" fill="#FBB429"/>
<path d="M37.2534 43.7354C35.6588 43.7354 34.3659 44.5379 34.3659 45.5277C34.3659 46.5175 35.6587 47.3201 37.2534 47.3201C38.8483 47.3201 40.1412 46.5174 40.1412 45.5277C40.1412 44.5379 38.8482 43.7354 37.2534 43.7354ZM37.2534 44.2088C38.4946 44.2088 39.5007 44.7998 39.5007 45.5277C39.5007 46.2561 38.4947 46.8471 37.2534 46.8471C36.0122 46.8471 35.0064 46.2561 35.0064 45.5277C35.0063 44.7998 36.0121 44.2088 37.2534 44.2088Z" fill="#ECF0F1"/>
<path d="M37.2536 46.8469C38.4912 46.8469 39.5009 46.2544 39.5009 45.5279C39.5009 44.8014 38.4912 44.2088 37.2536 44.2088C36.0159 44.2088 35.0065 44.8014 35.0065 45.5279C35.0064 46.2543 36.0159 46.8469 37.2536 46.8469Z" fill="#333333"/>
<path d="M38.168 46.2812V47.7257C38.168 47.9048 38.3143 48.0514 38.4937 48.0514H39.0681C39.2475 48.0514 39.3937 47.9048 39.3937 47.7257V45.4904C39.3937 45.4562 39.3884 45.4233 39.3785 45.3923V44.9002C39.3785 44.4819 39.0365 44.1398 38.6182 44.1398H33.9159C33.4977 44.1398 33.1556 44.4818 33.1556 44.9002V45.3916C33.1453 45.4227 33.1401 45.4559 33.1401 45.4905V47.7258C33.1401 47.9049 33.2864 48.0515 33.4658 48.0515H34.0402C34.2193 48.0515 34.3659 47.9049 34.3659 47.7258V46.2813H34.816V47.7258C34.816 47.9049 34.9626 48.0515 35.1418 48.0515H35.7161C35.8956 48.0515 36.0419 47.9049 36.0419 47.7258V46.2813H36.4921V47.7258C36.4921 47.9049 36.6385 48.0515 36.8179 48.0515H37.3922C37.5714 48.0515 37.7177 47.9049 37.7177 47.7258V46.2813L38.168 46.2812Z" fill="#FBB429"/>
<path d="M12.1189 29.8046H37.8811C38.7038 29.8046 39.3769 30.4777 39.3769 31.3002V45.5386C39.3769 46.3612 38.7038 47.0345 37.8811 47.0345H12.1189C11.2962 47.0345 10.623 46.3612 10.623 45.5386V31.3002C10.623 30.4777 11.2962 29.8046 12.1189 29.8046Z" fill="white"/>
<path d="M11.1906 47.7683H38.8094C39.1216 47.7683 39.3769 48.0238 39.3769 48.3364V49.4311C39.3769 49.7438 39.1215 49.999 38.8094 49.999H11.1906C10.8783 49.999 10.6228 49.7438 10.6228 49.4311V48.3364C10.6228 48.0238 10.8783 47.7683 11.1906 47.7683Z" fill="#C8CACC"/>
<path d="M14.8464 46.692H17.2876V48.3565H14.8464V46.692ZM32.7128 46.692H35.154V48.3565H32.7128V46.692Z" fill="#ECF0F1"/>
<path d="M22.2916 36.2638H27.7082C27.781 36.2638 27.8402 36.323 27.8402 36.3957V37.6219C27.8402 37.6946 27.781 37.7536 27.7082 37.7536H22.2916C22.219 37.7536 22.1599 37.6946 22.1599 37.6219V36.3957C22.16 36.323 22.219 36.2638 22.2916 36.2638Z" fill="#ECF0F1"/>
</svg>
